<svg xmlns="http://www.w3.org/2000/svg" width="32" height="40"><g fill="none" fill-rule="nonzero"><path fill="#DC250B" d="M20 0v8a4 4 0 004 4h8v26a2 2 0 01-2 2H2a2 2 0 01-2-2V2C0 .9.9 0 2 0h18zm2 0l10 10h-8.1A2 2 0 0122 8V0z"/><path fill="#FFF" d="M8.3 34v-1.7h1.1c1.6 0 2.5-1 2.5-2.4s-.9-2.2-2.5-2.2H6.6V34h1.7zm1-3h-1v-2h1c.7 0 1 .3 1 1 0 .6-.3 1-1 1zm6.6 3c2 0 3.4-1.3 3.4-3.2 0-1.8-1.3-3.1-3.3-3.1h-2.8V34H16zm.1-1.3H15V29h1c1 0 1.7.8 1.7 1.9 0 1-.6 1.8-1.6 1.8zm6.3 1.3v-2.3H25v-1.3h-2.8V29h3v-1.3h-4.7V34h1.7z"/></g></svg>