<svg xmlns="http://www.w3.org/2000/svg" width="32" height="40"><g fill="none" fill-rule="nonzero"><path fill="#007F50" d="M20 0v8a4 4 0 004 4h8v26a2 2 0 01-2 2H2a2 2 0 01-2-2V2C0 .9.9 0 2 0h18zm2 0l10 10h-8.1A2 2 0 0122 8V0z"/><path fill="#FFF" d="M8.5 34l1.3-2 1.3 2h2l-2.3-3.3 2.1-3h-2l-1.1 1.8-1.2-1.8h-2l2.2 3L6.5 34h2zm10 0v-1.4H16v-5h-1.7V34h4.4zm3.7 0c1.5 0 2.6-.6 2.6-1.9 0-2.3-3.3-1.7-3.3-2.7 0-.3.2-.4.6-.4a5 5 0 012 .6l.7-1.3c-.7-.4-1.6-.7-2.5-.7-1.6 0-2.6.8-2.6 2 0 2.2 3.4 1.5 3.4 2.6 0 .3-.3.5-.8.5a4 4 0 01-2.3-1l-.7 1.3c.8.7 1.9 1 3 1z"/></g></svg>