<svg xmlns="http://www.w3.org/2000/svg" width="32" height="40"><g fill="none" fill-rule="nonzero"><path fill="#EA6415" d="M20 0v8a4 4 0 004 4h8v26a2 2 0 01-2 2H2a2 2 0 01-2-2V2C0 .9.9 0 2 0h18zm2 0l10 10h-8.1A2 2 0 0122 8V0z"/><path fill="#FFF" d="M8.6 34v-1.7h1.2c1.6 0 2.5-1 2.5-2.4s-1-2.2-2.5-2.2H7V34h1.6zm1-3h-1v-2h1c.7 0 1.1.3 1.1 1 0 .6-.4 1-1 1zm5.6 3v-1.7h1.2c1.6 0 2.5-1 2.5-2.4s-1-2.2-2.5-2.2h-2.8V34h1.6zm1-3h-1v-2h1c.8 0 1.1.3 1.1 1 0 .6-.3 1-1 1zm7 3v-5H25v-1.3h-5.4V29h1.8V34h1.7z"/></g></svg>