<svg xmlns="http://www.w3.org/2000/svg" width="32" height="40"><g fill="none" fill-rule="nonzero"><path fill="#275399" d="M20 0v8a4 4 0 004 4h8v26a2 2 0 01-2 2H2a2 2 0 01-2-2V2C0 .9.9 0 2 0h18zm2 0l10 10h-8.1A2 2 0 0122 8V0z"/><path fill="#FFF" d="M7.1 34c1.6 0 2.7-1 2.7-2.5 0-1.4-1-2.4-2.6-2.4H5V34h2zm.1-1h-.9V30h.8c.8 0 1.4.6 1.4 1.5 0 .8-.5 1.4-1.3 1.4zm6 1c1.5 0 2.6-1 2.6-2.5 0-1.4-1.1-2.4-2.6-2.4s-2.7 1-2.7 2.4c0 1.5 1.2 2.6 2.7 2.6zm0-1c-.7 0-1.4-.7-1.4-1.4 0-.8.7-1.5 1.4-1.5s1.3.7 1.3 1.4c0 .8-.6 1.5-1.3 1.5zm6 1a3 3 0 002-.9l-.8-.8c-.3.4-.8.6-1.2.6-.7 0-1.3-.6-1.3-1.4 0-.8.6-1.4 1.3-1.4.4 0 1 .3 1.2.7l.8-.9c-.5-.5-1.3-.8-2-.8-1.5 0-2.6 1-2.6 2.4 0 1.5 1 2.6 2.5 2.6zm4 0l1.1-1.5 1 1.5H27L25 31.4l1.6-2.3h-1.5l-.9 1.4-1-1.4H22l1.6 2.4-1.7 2.5h1.5z"/></g></svg>