<svg xmlns="http://www.w3.org/2000/svg" width="32" height="40"><g fill="none" fill-rule="nonzero"><path fill="#007F50" d="M20 0v8a4 4 0 004 4h8v26a2 2 0 01-2 2H2a2 2 0 01-2-2V2C0 .9.9 0 2 0h18zm2 0l10 10h-8.1A2 2 0 0122 8V0z"/><path fill="#FFF" d="M7.1 34l1-1.5 1 1.5h1.6L9 31.4l1.6-2.3H9l-1 1.4-.9-1.4H5.7l1.7 2.4L5.6 34h1.5zm8 0v-1h-2v-4h-1.4v5h3.4zm3 0c1 0 2-.5 2-1.5 0-1.7-2.6-1.3-2.6-2 0-.3.2-.4.5-.4.4 0 1 .2 1.6.5l.4-1c-.5-.3-1.2-.6-2-.6-1 0-1.9.6-1.9 1.5 0 1.8 2.6 1.3 2.6 2.1 0 .3-.2.4-.6.4-.5 0-1.3-.3-1.8-.7l-.5 1c.6.4 1.5.7 2.3.7zm4.2 0l1-1.5 1 1.5H26L24 31.4l1.6-2.3h-1.5l-1 1.4-.8-1.4h-1.5l1.6 2.4-1.7 2.5h1.5z"/></g></svg>