<svg xmlns="http://www.w3.org/2000/svg" width="32" height="40"><g fill="none" fill-rule="nonzero"><path fill="#275399" d="M20 0v8a4 4 0 004 4h8v26a2 2 0 01-2 2H2a2 2 0 01-2-2V2C0 .9.9 0 2 0h18zm2 0l10 10h-8.1A2 2 0 0122 8V0z"/><path fill="#FFF" d="M8.4 34c2 0 3.5-1.3 3.5-3.2 0-1.8-1.4-3.1-3.4-3.1H5.8V34h2.6zm.2-1.3H7.4V29h1c1 0 1.8.8 1.8 1.9 0 1-.7 1.8-1.6 1.8zM16 34c2 0 3.4-1.4 3.4-3.3 0-1.8-1.5-3.2-3.4-3.2-2 0-3.4 1.4-3.4 3.2 0 1.9 1.4 3.3 3.4 3.3zm0-1.4c-1 0-1.7-.8-1.7-1.9 0-1 .8-1.8 1.7-1.8 1 0 1.7.8 1.7 1.9 0 1-.8 1.8-1.7 1.8zm7.5 1.4c1 0 2-.5 2.6-1.2l-1-1c-.4.4-1 .7-1.5.7-1 0-1.7-.8-1.7-1.8s.7-1.8 1.7-1.8c.6 0 1.2.4 1.6.9l1-1.2c-.7-.6-1.7-1-2.6-1-2 0-3.4 1.3-3.4 3.1 0 1.9 1.4 3.3 3.3 3.3z"/></g></svg>