<svg xmlns="http://www.w3.org/2000/svg" width="32" height="40"><g fill="none" fill-rule="nonzero"><path fill="#EA6415" d="M20 0v8a4 4 0 004 4h8v26a2 2 0 01-2 2H2a2 2 0 01-2-2V2C0 .9.9 0 2 0h18zm2 0l10 10h-8.1A2 2 0 0122 8V0z"/><path fill="#FFF" d="M7.3 34v-1.4H8c1.3 0 2-.6 2-1.8 0-1-.7-1.7-2-1.7H6V34h1.3zm.8-2.4h-.8v-1.5H8c.5 0 .8.3.8.8s-.3.7-.8.7zm4.4 2.4v-1.4h.9c1.3 0 2-.6 2-1.8 0-1-.7-1.7-2-1.7h-2.2V34h1.3zm.8-2.4h-.8v-1.5h.8c.6 0 .9.3.9.8s-.3.7-.9.7zm5.5 2.4v-3.9h1.5v-1H16v1h1.4V34h1.3zm3.6 0l1-1.5 1 1.5H26l-1.8-2.6 1.6-2.3h-1.5l-1 1.4-.8-1.4H21l1.6 2.4-1.7 2.5h1.5z"/></g></svg>