<svg xmlns="http://www.w3.org/2000/svg" width="20" height="20" viewBox="0 0 20 20"><path fill="#FFF" d="M16.757 9.25l-3.004 3.002a4.245 4.245 0 01-6.005 0 4.242 4.242 0 01-.645-.857L8.499 10c.066-.067.148-.105.226-.15.097.33.265.641.524.9a2.125 2.125 0 003.003 0l3.002-3.002a2.125 2.125 0 000-3.003 2.126 2.126 0 00-3.002 0l-1.068 1.069a5.328 5.328 0 00-2.709-.295l2.276-2.275a4.247 4.247 0 016.006 6.005zm-7.94 4.937l-1.07 1.069a2.127 2.127 0 01-3.002 0 2.127 2.127 0 010-3.004l3.003-3.003a2.125 2.125 0 013.002 0c.26.26.428.571.525.9.079-.045.16-.083.226-.149l1.396-1.395a4.173 4.173 0 00-.645-.857 4.246 4.246 0 00-6.006 0l-3.002 3.003a4.247 4.247 0 006.005 6.006l2.276-2.276a5.324 5.324 0 01-2.709-.294z"/></svg>