<svg xmlns="http://www.w3.org/2000/svg" width="20" height="20" viewBox="0 0 20 20"><path fill="#FFF" d="M10.083 1c2.414 0 4.575.967 6.134 2.537a8.717 8.717 0 012.523 6.175 8.871 8.871 0 01-12.474 8.071l-.155-.07L1 19l1.312-4.89A8.871 8.871 0 0110.083 1zm.161 2.387a6.667 6.667 0 00-4.726 1.967 6.69 6.69 0 00-1.973 4.732c0 1.937.972 3.486 1.104 3.684l-.527 2.108 2.32-.47c.065.045 1.61 1.108 3.638 1.11a6.59 6.59 0 004.623-2.003 6.709 6.709 0 001.918-4.697c0-1.838-.704-3.421-1.83-4.556a6.387 6.387 0 00-4.547-1.875zm-2.482 2.67c.414.038.553.145.685.436l.024.053.65 1.576-.515 1.146c.635 1.252 1.468 1.681 2.11 2.016l.096.05.092.049.57-.712a.65.65 0 01.304-.235c.39-.013.484.04.57.095a92.83 92.83 0 011.81.883c.012.059.021.121.03.188.06.522-.044.814-.096.961-.326.62-.954 1.115-1.574 1.183l-.064.014c-.447.099-.876.158-2.417-.517-1.913-.845-2.916-2.361-3.218-2.824-.53-.685-.866-1.432-.897-2.174-.026-.65.174-1.3.723-1.85.25-.25.502-.32.652-.335l.03-.003h.435z"/></svg>