<svg xmlns="http://www.w3.org/2000/svg" width="20" height="20" viewBox="0 0 20 20"><defs><linearGradient id="a" x1="50%" x2="50%" y1="0%" y2="100%"><stop offset="0%" stop-color="#FFF" stop-opacity=".2"/><stop offset="100%" stop-color="#FFF" stop-opacity=".5"/></linearGradient></defs><g fill="none"><path fill="#FFF" d="M2.72 3.197l.015.01L10 8.463l7.265-5.254A1.094 1.094 0 0119 4.095v-.001 11.238c0 .646-.497 1.143-1.094 1.143h-1.143l-.001-10.204L10 11.162 3.237 6.271v10.204H2.095c-.597 0-1.094-.497-1.094-1.143V4.094a1.094 1.094 0 011.72-.897z"/><path fill="url(#a)" d="M14.762 5.228v8.247H3.238V5.228L9 9.396l5.762-4.168zM14.846 0L9 4.228 3.154 0h11.692z" transform="translate(1 3)"/></g></svg>